<svg width="63" height="23" viewBox="0 0 63 23" fill="none" xmlns="http://www.w3.org/2000/svg">
<path d="M19.94 22H0.26L10.1 0.669999L19.94 22ZM2 20.89H18.2L10.1 3.31L2 20.89ZM57.2141 6.4H51.3341V1.12H62.6741V13.51C62.6741 15.37 62.3041 16.98 61.5641 18.34C60.8241 19.68 59.8041 20.7 58.5041 21.4C57.2241 22.1 55.7941 22.45 54.2141 22.45C52.6941 22.45 51.2841 22.07 49.9841 21.31C48.7041 20.55 47.6841 19.53 46.9241 18.25C46.1641 16.95 45.7841 15.54 45.7841 14.02H51.2441C51.2441 14.94 51.5041 15.71 52.0241 16.33C52.5641 16.95 53.2841 17.26 54.1841 17.26C55.1441 17.26 55.8841 16.96 56.4041 16.36C56.9441 15.74 57.2141 14.84 57.2141 13.66V6.4Z" fill="white"/>
<path d="M23.877 1.09H25.077L32.367 13.99L39.627 1.09H40.737V21.97H23.877V1.09ZM24.987 20.89H39.627V3.34L32.877 15.22H31.827L24.987 3.16V20.89Z" fill="#704AF2"/>
</svg>
