<svg width="65" height="30" viewBox="0 0 65 30" fill="none" xmlns="http://www.w3.org/2000/svg">
<path d="M22.21 12L17.17 11.85C16.61 11.85 15.01 11.89 12.37 11.97C11.97 12.81 11.44 13.96 10.78 15.42C8.84 19.74 6.92 23.34 5.02 26.22C3.48 28.54 2.32 29.7 1.54 29.7C1.2 29.7 0.92 29.58 0.7 29.34C0.48 29.12 0.37 28.81 0.37 28.41C0.37 28.01 0.59 27.54 1.03 27C1.45 26.46 1.99 25.87 2.65 25.23C3.29 24.61 4.14 23.57 5.2 22.11C6.24 20.65 7.24 18.97 8.2 17.07C8.36 16.77 9.17 15.08 10.63 12H10.48C10.16 12 9.88 11.91 9.64 11.73C9.42 11.53 9.31 11.26 9.31 10.92C9.31 10.58 9.43 10.3 9.67 10.08C9.91 9.86 10.22 9.75 10.6 9.75C11 9.75 11.38 9.76 11.74 9.78C13.58 6.02 15.26 3.42 16.78 1.98C13.22 2.26 11.29 2.4 10.99 2.4C10.71 2.4 10.44 2.3 10.18 2.1C9.94 1.9 9.82 1.64 9.82 1.32C9.82 0.979999 9.94 0.699999 10.18 0.48C10.44 0.239999 10.72 0.119999 11.02 0.119999L17.56 0.299998L24.67 0.119999C25.03 0.119999 25.32 0.229999 25.54 0.449998C25.76 0.669999 25.87 0.959999 25.87 1.32C25.87 1.66 25.75 1.93 25.51 2.13C25.29 2.31 25 2.4 24.64 2.4H23.92C23.92 5.6 24.05 8.49 24.31 11.07C24.57 13.65 24.83 15.64 25.09 17.04C25.35 18.44 25.48 19.33 25.48 19.71C25.48 20.07 25.36 20.41 25.12 20.73C24.9 21.03 24.6 21.18 24.22 21.18C23.84 21.18 23.51 21.04 23.23 20.76C22.95 20.48 22.79 20.08 22.75 19.56L22.21 12ZM21.67 2.04L20.77 2.01C18.39 2.31 15.95 4.91 13.45 9.81C15.57 9.85 16.91 9.87 17.47 9.87C18.05 9.87 19.58 9.83 22.06 9.75C21.8 6.31 21.67 3.74 21.67 2.04ZM62.2281 2.34C61.6681 2.26 61.0481 2.22 60.3681 2.22C59.6881 2.22 58.9981 2.41 58.2981 2.79C57.6181 3.17 57.2781 3.67 57.2781 4.29C57.2781 5.33 57.6481 5.85 58.3881 5.85C58.6881 5.85 58.9281 5.95 59.1081 6.15C59.2881 6.35 59.3781 6.6 59.3781 6.9C59.3781 7.2 59.2681 7.45 59.0481 7.65C58.8281 7.83 58.5281 7.92 58.1481 7.92C57.4481 7.92 56.8481 7.63 56.3481 7.05C55.8681 6.45 55.6281 5.75 55.6281 4.95C55.6281 4.13 55.8281 3.4 56.2281 2.76C56.6281 2.1 57.1481 1.58 57.7881 1.2C59.0481 0.479999 60.4781 0.119999 62.0781 0.119999C64.0181 0.119999 64.9881 0.699999 64.9881 1.86C64.9881 2.42 64.9381 3.88 64.8381 6.24C64.7581 8.58 64.7181 10.71 64.7181 12.63C64.7181 14.53 64.6181 16.24 64.4181 17.76C64.2381 19.28 63.8981 20.79 63.3981 22.29C62.9181 23.79 62.2881 25.07 61.5081 26.13C60.7481 27.19 59.7481 28.05 58.5081 28.71C57.2881 29.37 55.8981 29.7 54.3381 29.7C52.7581 29.7 51.3781 29.34 50.1981 28.62C48.9981 27.92 48.3981 27.11 48.3981 26.19C48.3981 25.77 48.5181 25.42 48.7581 25.14C48.9981 24.88 49.2981 24.75 49.6581 24.75C49.9981 24.75 50.3181 24.85 50.6181 25.05C50.8981 25.25 51.2081 25.52 51.5481 25.86C52.8681 27.22 54.3281 27.9 55.9281 27.9C57.0281 27.9 58.0081 27.48 58.8681 26.64C59.7281 25.8 60.4181 24.66 60.9381 23.22C61.9581 20.34 62.4681 16.92 62.4681 12.96C62.4681 7.38 62.3881 3.84 62.2281 2.34Z" fill="black"/>
<path d="M50.2513 2.58L49.8913 2.61C50.1113 8.81 50.3413 13.26 50.5813 15.96C50.6413 16.62 50.9213 17.27 51.4213 17.91C51.9213 18.55 52.1713 19.1 52.1713 19.56C52.1713 20 52.0313 20.38 51.7513 20.7C51.4913 21.02 51.1313 21.18 50.6713 21.18C50.2313 21.18 49.8513 20.91 49.5313 20.37C49.2313 19.81 49.0513 19.21 48.9913 18.57C48.5113 11.91 47.9113 6.86 47.1913 3.42C45.3713 4.34 43.5913 5.93 41.8513 8.19C43.4313 10.69 44.2213 12.82 44.2213 14.58C44.2213 16.32 43.6313 17.83 42.4513 19.11C41.2713 20.37 40.1713 21 39.1513 21C38.1313 21 37.3413 20.67 36.7813 20.01C36.2413 19.35 35.9713 18.54 35.9713 17.58C35.9713 16.6 36.2913 15.37 36.9313 13.89C37.5913 12.39 38.4513 10.83 39.5113 9.21C38.5913 7.83 37.5313 6.61 36.3313 5.55C35.1313 4.49 33.9613 3.76 32.8213 3.36C32.8213 3.42 32.7413 3.98 32.5813 5.04C31.8813 9.42 31.4013 15.18 31.1413 22.32C31.0413 25.54 30.9613 27.41 30.9013 27.93C30.8613 28.45 30.7013 28.85 30.4213 29.13C30.1413 29.43 29.8113 29.58 29.4313 29.58C29.0713 29.58 28.7313 29.43 28.4113 29.13C28.1113 28.85 27.9613 28.38 27.9613 27.72C27.9613 27.08 28.2313 25.16 28.7713 21.96C29.8913 15.32 30.4913 8.99 30.5713 2.97C29.7513 2.79 29.3413 2.28 29.3413 1.44C29.3413 1.06 29.5213 0.75 29.8813 0.509999C30.2413 0.249999 30.6813 0.119999 31.2013 0.119999C32.7413 0.119999 34.4013 0.779999 36.1813 2.1C37.9813 3.4 39.6013 5.04 41.0413 7.02C42.5613 5 44.1313 3.35 45.7513 2.07C47.3713 0.769999 48.8713 0.119999 50.2513 0.119999C51.1913 0.119999 51.6613 0.499999 51.6613 1.26C51.6613 1.62 51.5013 1.93 51.1813 2.19C50.8813 2.45 50.5713 2.58 50.2513 2.58ZM41.8513 15.63C41.8513 14.11 41.3213 12.39 40.2613 10.47C38.6413 13.07 37.8313 15.03 37.8313 16.35C37.8313 17.07 38.0113 17.7 38.3713 18.24C38.7513 18.78 39.2213 19.05 39.7813 19.05C40.3413 19.05 40.8213 18.7 41.2213 18C41.6413 17.28 41.8513 16.49 41.8513 15.63Z" fill="#704AF2"/>
</svg>
